#!OML:ASF F:\VICON\USERDATA\INSTALL\rory3\rory3.ASF
:FULLY-SPECIFIED
:DEGREES
38
root -0.6934614639681437 18.572261439411182 6.423484586092602 5.665116215974272 0.5221977486710359 5.607793841451332
lfemur 4.012639902421746 -4.654567182879083 -30.794924690688607
ltibia 48.239929428505796
lfoot 27.445517809884976 -19.768753300573344
ltoes -11.624699847572552
rfemur -35.731170344039626 -0.7333716174350129 22.622977757184522
rtibia 31.427718545122886
rfoot 16.456268437357465 -4.73078141405392
rtoes -5.9928829190817225
lowerback 13.930859018146155 -1.7688295864560035 -3.55826442108984
upperback -1.051517775857743 -2.883278997514794 1.0231059886263223
thorax -7.711994477494593 -1.2672215847058297 2.6007058597913018
lowerneck -18.98960802561069 -3.2473351214513295 -2.4675553969593755
upperneck 15.279777637878 -4.073685994521966 3.285812127984597
head 8.218669045863054 -1.721474402106307 0.8656579076397495
lclavicle 1.0400617483304056e-16 1.6631696776847891e-15
lhumerus -39.51162927853496 -10.392775575321476 86.97187873637255
lradius 112.47191599093743
lwrist 34.07846107712733
lhand -27.947258120897544 0.8883370667381683
lfingers 7.125019999999998
lthumb -1.934836297627531 31.037881996671516
rclavicle 1.1424258209573537e-16 1.6686428469200507e-15
rhumerus -65.03085181074955 1.492118782469646 -92.7152050562188
rradius 108.94679745695386
rwrist -18.193803196570222
rhand -17.470947347006604 39.422864647712395
rfingers 7.125019999999998
rthumb 7.797060440062047 11.704293089725644
39
root -0.6563921529919632 18.48543314313923 7.547658931060057 5.2587138299108 0.13717593021423635 5.049343106192283
lfemur 1.8211328233821291 -4.156823833557176 -29.761375762751324
ltibia 57.69740448558231
lfoot 25.460351331284894 -19.833911249240693
ltoes -9.740208626015999
rfemur -34.598192956237476 -0.09772815422054748 23.480500055461206
rtibia 33.756716093947915
rfoot 14.730945010558763 -5.595438990708213
rtoes -4.29035961063685
lowerback 14.186634494533697 -1.5854687908744922 -2.830348262466249
upperback -0.7059293928836479 -2.587493172857827 1.0818966883672514
thorax -7.548450748613874 -1.1462579712523011 2.3162136173689154
lowerneck -19.366697564773478 -3.3131307829419763 -2.4447238849401876
upperneck 15.10644606245655 -4.222635613880531 3.216509093726545
head 8.205040775628104 -1.7691901599643174 0.8403684772019047
lclavicle 9.616239740264153e-17 1.6578687432567267e-15
lhumerus -39.96641184863473 -10.26312671383808 87.19117387663174
lradius 106.45796254511322
lwrist 33.53827049536447
lhand -27.729048623137857 -3.0845059699357185
lfingers 7.125019999999998
lthumb -0.350533269189341 25.014385118489244
rclavicle 1.0614565220690231e-16 1.6635783228443268e-15
rhumerus -63.07232770665115 1.2864378169454707 -92.63045830053669
rradius 107.53284974318474
rwrist -15.97044509965956
rhand -17.907035185163664 39.07863371618345
rfingers 7.125019999999998
rthumb 7.42881874961966 11.268975087029066
40
root -0.609115559194924 18.323088063973074 8.341589318293819 4.505172203834569 -0.6166733157880654 4.177632098234123
lfemur -0.4031359544879045 -2.862682498185002 -28.145641422180308
ltibia 67.93242912480684
lfoot 24.14489567306695 -18.777344968744323
ltoes -5.391766848257349
rfemur -33.0668499254539 1.117440010818074 24.625314425735883
rtibia 37.418900906617694
rfoot 12.909044130258106 -4.740666959024635
rtoes -6.969850574295442
lowerback 14.954779612194448 -1.3036317231424155 -2.020372520758626
upperback -0.3600872941678251 -2.0918859503628466 1.234365171505531
thorax -7.723536834815777 -0.9182023833476578 1.9465226202860668
lowerneck -19.188447165310702 -3.3348146831671865 -2.49601657701408
upperneck 14.674527993994825 -4.2088458930357255 3.1566939850535323
head 7.979800876078819 -1.7994369346647157 0.8616634521423978
lclavicle 9.802599136329927e-17 1.6590871356809852e-15
lhumerus -40.523809659949926 -9.812943128148953 87.69246801031238
lradius 99.42506068000625
lwrist 34.38647065723832
lhand -26.73507601187778 -1.3759736127812632
lfingers 7.125019999999998
lthumb -0.23357906454796185 22.951016574018798
rclavicle 1.1056849952939667e-16 1.6666458363801034e-15
rhumerus -60.84200260299605 1.865083968280853 -92.75087765084056
rradius 105.54641759551173
rwrist -16.188389466115638
rhand -18.067371613460914 39.77469987026801
rfingers 7.125019999999998
rthumb 7.493205923216068 12.076425668029298
41
root -0.5866732115018618 18.108084174693943 9.498824214601864 3.7877540058374537 -2.1452714105599506 2.6457605692113617
lfemur -3.3225765344960294 -0.2114679528309953 -25.54303972704851
ltibia 78.51536968953711
lfoot 21.95270490321966 -17.20571271555944
ltoes -4.054442107773066
rfemur -31.14417976956438 3.2489902651194575 26.290374108182988
rtibia 40.689133287569945
rfoot 9.224237104035131 -2.615627794659016
rtoes 1.1975041853085502
lowerback 15.746677463546412 -0.7759788493589189 -0.9462194178058846
upperback -0.1474260616166584 -1.1425957906004682 1.5860398507836702
thorax -7.973454336448181 -0.5048707301410009 1.5970583695761627
lowerneck -18.925905120714564 -3.348563734239078 -2.588757296379342
upperneck 14.522186968337014 -4.169667182776756 3.0649053074357258
head 7.900393591367387 -1.822540969157314 0.8453252693019881
lclavicle 1.0372599352312602e-16 1.6629412023600233e-15
lhumerus -42.839637537205164 -9.590536601522622 89.28298461466237
lradius 94.07639432921347
lwrist 34.024107958745375
lhand -29.401690430575332 2.6329314223106373
lfingers 7.125019999999998
lthumb -2.280676829031054 29.73383119387407
rclavicle 1.0849378097924492e-16 1.665844258795392e-15
rhumerus -59.286806730899485 2.13344000036367 -92.74054610934117
rradius 103.99986108548232
rwrist -16.397562952258404
rhand -18.210973341193668 40.079990072859296
rfingers 7.125019999999998
rthumb 7.380974750535696 11.784452565202663
